<svg xmlns="http://www.w3.org/2000/svg" viewBox="0 0 415 365"><defs><style>.a,.d{fill:#fff;}.b{fill:#b52318;}.c{fill:#52a5c1;}.d{opacity:0.3;}.e{fill:#e84892;}</style></defs><title>live_text_sign</title><path class="a" d="M49.2,212,78.4,359.1a7.1,7.1,0,0,0,8.8,5.6l319.5-71.3a7.1,7.1,0,0,0,5.2-7.1l-3.2-103.5a7.1,7.1,0,0,0-7.6-6.8L55.7,203.7A7.1,7.1,0,0,0,49.2,212Z" transform="translate(0 0)"/><path class="b" d="M88.4,361.5a6.6,6.6,0,0,1-6.5-5.5L52.7,208.9a6.6,6.6,0,0,1,6-7.7l345.5-27.6h.5a6.6,6.6,0,0,1,6.6,6.3l3.2,103.5a6.6,6.6,0,0,1-4.9,6.7L90.2,361.3l-1.8.2Z" transform="translate(0 0)"/><path class="a" d="M404.7,174.1a6.1,6.1,0,0,1,6.1,5.8L414,283.4a6,6,0,0,1-4.5,6.1L90,360.8l-1.6.2a6.1,6.1,0,0,1-6-5.1L53.2,208.8a6.1,6.1,0,0,1,5.6-7.1l345.5-27.6h.5m0-1h-.5L58.7,200.7a7.1,7.1,0,0,0-6.5,8.3L81.4,356.1a7.1,7.1,0,0,0,7,5.9l1.9-.2,319.5-71.3a7.1,7.1,0,0,0,5.2-7.1l-3.2-103.5a7.1,7.1,0,0,0-7.1-6.8Z" transform="translate(0 0)"/><path class="c" d="M74.5,228.7,99.1,341.3a4.2,4.2,0,0,0,5.3,3.2L397.6,276a4.2,4.2,0,0,0,3-4.2l-3.9-81.9A4.2,4.2,0,0,0,392,186L78.1,223.8A4.2,4.2,0,0,0,74.5,228.7Z" transform="translate(0 0)"/><path class="a" d="M98.4,341.1a5.6,5.6,0,0,1-5.5-4.9L76.6,222.3a5.6,5.6,0,0,1,5.1-6.3l315.2-25.3h.4a5.6,5.6,0,0,1,5.6,5.6l-2.7,82.1h0a5.5,5.5,0,0,1-4.3,5.3L99.6,340.9Zm-2.7-5.2a2.7,2.7,0,0,0,2.7,2.4H99L395.3,281a2.7,2.7,0,0,0,2.1-2.7l2.7-82.1a2.7,2.7,0,0,0-2.7-2.7h-.2L81.9,218.9a2.8,2.8,0,0,0-2.6,2.7,2.7,2.7,0,0,0,0,.4h0Z" transform="translate(0 0)"/><path class="d" d="M171.9,272a2.7,2.7,0,0,0-2.7,2.5l-11.4-.8a22.1,22.1,0,0,1-20.6-20.8l-1.1-20.5a2.8,2.8,0,1,0-.4,0l-1.1,20.5a22.1,22.1,0,0,1-20.6,20.8l-12.1.8a2.8,2.8,0,1,0,0,.5l12.1.8a22.1,22.1,0,0,1,20.6,20.8l1.2,20.9a2.8,2.8,0,1,0,.4,0l1.2-20.9a22.1,22.1,0,0,1,20.6-20.8l11.4-.8a2.8,2.8,0,1,0,2.7-3.1Z" transform="translate(0 0)"/><path class="d" d="M181.4,243.8a1.3,1.3,0,0,0-1.3,1.1l-5.3-.4a10.3,10.3,0,0,1-9.6-9.7l-.5-9.5a1.3,1.3,0,1,0-.2,0l-.5,9.5a10.3,10.3,0,0,1-9.6,9.7l-5.6.4a1.3,1.3,0,1,0,0,.2l5.6.4a10.3,10.3,0,0,1,9.6,9.7l.5,9.7a1.3,1.3,0,1,0,.2,0l.5-9.7a10.3,10.3,0,0,1,9.6-9.7l5.3-.4a1.3,1.3,0,1,0,1.3-1.4Z" transform="translate(0 0)"/><path class="d" d="M391,227.6a2.4,2.4,0,0,0-3.3.6,2.4,2.4,0,0,0-.4,1.2l-26.1,1,9-19.1a2.4,2.4,0,1,0-.5-.3h.1l-9,18.9-13.8-15,.2-.2a2.4,2.4,0,1,0-.6.6l13.9,15-18.7.7a2.4,2.4,0,1,0,0,.5l18.6-.7L352.2,248a2.4,2.4,0,1,0,.6.3h-.2l8.2-17.3,16.3,17.6-.2.2a2.4,2.4,0,1,0,.5-.6l-16-17.3,25.8-1a2.4,2.4,0,1,0,3.7-2.4Z" transform="translate(0 0)"/><path class="d" d="M169.5,305.5a.8.8,0,0,0-.8.8l-3.5-.2a6.8,6.8,0,0,1-6.3-6.4l-.4-6.3a.9.9,0,1,0-.1,0l-.4,6.3a6.8,6.8,0,0,1-6.3,6.4l-3.7.3a.8.8,0,1,0,0,.2l3.7.3a6.8,6.8,0,0,1,6.3,6.4l.4,6.4a.9.9,0,1,0,.1,0l.4-6.4a6.8,6.8,0,0,1,6.3-6.4l3.5-.2a.8.8,0,1,0,.8-.9Z" transform="translate(0 0)"/><path class="a" d="M92.5,287a1.4,1.4,0,0,0-.4-2.2L30.4,256.3l-12-5.5-3-1.4-.8-.4-1.2-.6a20.6,20.6,0,0,1-2.3-1.3,24.8,24.8,0,0,1-7.4-7.7,24.8,24.8,0,0,1,2.5-29.5l2.2-2.2.8-.7.7-.5.7-.5.6-.4h.3l.3-.2,1.4-.9,44.3-28.8L308.3,6.3a4.3,4.3,0,0,1,6.1,1.4h0a4.3,4.3,0,0,1-1.2,5.7L66.5,188.9,23.3,219.2l-1.4.9-.3.2-.5.4-.6.5-.4.4v.2a7.3,7.3,0,0,0-1.1,2.3,6.4,6.4,0,0,0,.9,5.1,5.7,5.7,0,0,0,1.8,1.7l.6.3.3.2.7.3,3,1.3L38.4,238l63,26.4a1.4,1.4,0,0,0,1.9-1.2l.5-13.3a1.4,1.4,0,0,1,2.5-.7l30.3,42a1.4,1.4,0,0,1-1,2.2l-51.6,5.2a1.4,1.4,0,0,1-1.1-2.3Z" transform="translate(0 0)"/><polygon class="e" points="25.2 232.4 25.2 232.4 25.2 232.4 25.2 232.4"/><path class="c" d="M93.6,284.7a1.4,1.4,0,0,0-.4-2.2L31.4,254l-12-5.5-3-1.4-.8-.4-1.2-.6a20.6,20.6,0,0,1-2.3-1.3,24.8,24.8,0,0,1-7.4-7.7,24.8,24.8,0,0,1,2.5-29.5l2.2-2.2.8-.7.7-.5.7-.5.6-.4h.3l.3-.2,1.4-.9,44.3-28.8L309.4,4.1a4.3,4.3,0,0,1,6.1,1.4h0a4.3,4.3,0,0,1-1.2,5.7L67.6,186.6,24.3,216.9l-1.4.9-.3.2-.5.4-.6.5-.4.4v.2a7.3,7.3,0,0,0-1.1,2.3,6.4,6.4,0,0,0,.9,5.1,5.7,5.7,0,0,0,1.8,1.7l.6.3.3.2.7.3,3,1.3,12.2,5.1,63,26.4a1.4,1.4,0,0,0,1.9-1.2l.5-13.3a1.4,1.4,0,0,1,2.5-.7l30.3,42a1.4,1.4,0,0,1-1,2.2L85,296.3a1.4,1.4,0,0,1-1.1-2.3Z" transform="translate(0 0)"/><path class="a" d="M144.5,293.4l-1.1.4-51.4,6.9a2.8,2.8,0,0,1-2.3-4.7l9.4-9.5L36.4,260.1l-15.2-6.4-.8-.4-1.2-.6-.7-.3-1.8-1h0a26.2,26.2,0,0,1-8.1-7.8l-.7-1.1a26.2,26.2,0,0,1,2.3-30.1l2.2-2.4h0l.7-.6,1.4-1.2.6-.5L60.6,176,307.5,1l.3-.2a5.7,5.7,0,0,1,7.8,1.8h.1a5.7,5.7,0,0,1-1.5,7.5L71.8,191.4,28,224.3l-1.2,1.1v.2a6.1,6.1,0,0,0-.8,1.9,5.2,5.2,0,0,0,.5,3.5l.3.4a4.4,4.4,0,0,0,1.4,1.2h.5l.4.2,79.8,30.4V250.1a2.8,2.8,0,0,1,1.3-2.4,2.8,2.8,0,0,1,3.7.7l31.7,41,.2.2a2.8,2.8,0,0,1-.9,3.9ZM143,291l-31.5-40.8v13.2a2.8,2.8,0,0,1-3.8,2.6L28.1,235.6l-.4-.2-.3-.2h-.2l-.5-.2a7.1,7.1,0,0,1-2.3-2l-.5-.7a8.1,8.1,0,0,1-.9-5.5,8.8,8.8,0,0,1,1.1-2.7h.1v-.2h.3l1.5-1.3,43.9-33L312.5,8.1a2.9,2.9,0,0,0,.7-3.8h-.1a2.9,2.9,0,0,0-3.9-.9h-.2L62.2,178.3,17,209.8l-.6.5-1.5,1.2-.5.4h0l-2,2.2a23.4,23.4,0,0,0-2,26.9l.6,1a23.3,23.3,0,0,0,7.2,7h.1l1.4.8.7.4,1.1.6.8.3L100.2,284a2.7,2.7,0,0,1,1.3,1.1,2.8,2.8,0,0,1-.4,3.4l-9.3,9.4Z" transform="translate(0 0)"/></svg>