<svg xmlns="http://www.w3.org/2000/svg" viewBox="0 0 395.2 217.7"><defs><style>.a,.d{fill:#fff;}.b{fill:#b52318;}.c{fill:#52a5c1;}.d{opacity:0.3;}</style></defs><path class="a" d="M46.7,190.4l9.2,149.8a7.1,7.1,0,0,0,8,6.8L390,319.2a7.1,7.1,0,0,0,6.2-6.4l10.7-103a7.1,7.1,0,0,0-6.6-7.7L54.2,183.1A7.1,7.1,0,0,0,46.7,190.4Z" transform="translate(-15.1 -129.3)"/><path class="b" d="M66.3,343.9a6.6,6.6,0,0,1-6.6-6.3L50.5,187.8a6.6,6.6,0,0,1,6.6-6.8h.4l346.1,19.1a6.6,6.6,0,0,1,6.2,7.2L399,310.3a6.6,6.6,0,0,1-5.7,5.9L67.2,343.9h-.9Z" transform="translate(-15.1 -129.3)"/><path class="a" d="M57.1,181.5h.4l346.1,19.1a6.1,6.1,0,0,1,5.7,6.6l-10.7,103a6,6,0,0,1-5.2,5.5L67.1,343.4h-.8a6.1,6.1,0,0,1-6.1-5.9L51,187.8a6.1,6.1,0,0,1,6.1-6.3m0-1a7.1,7.1,0,0,0-7.1,7.3l9.2,149.8a7.1,7.1,0,0,0,7.1,6.8h.9l326.2-27.7a7.1,7.1,0,0,0,6.2-6.4l10.7-103a7.1,7.1,0,0,0-6.6-7.7L57.6,180.5Z" transform="translate(-15.1 -129.3)"/><path class="c" d="M69.5,210.4l9.2,114.9a4.2,4.2,0,0,0,4.8,3.9l299.8-28.5a4.2,4.2,0,0,0,3.5-3.8l7.1-81.6a4.2,4.2,0,0,0-4.1-4.5L73.7,206A4.2,4.2,0,0,0,69.5,210.4Z" transform="translate(-15.1 -129.3)"/><path class="a" d="M78.1,324.9a5.6,5.6,0,0,1-4.8-5.6l-.8-115a5.6,5.6,0,0,1,5.9-5.5l315.7,17.3h.4a5.6,5.6,0,0,1,4.8,6.3l-13.7,81h0a5.5,5.5,0,0,1-5,4.7L79.3,325Zm-2-5.5a2.7,2.7,0,0,0,2.4,2.7h.6l301.3-16.7a2.7,2.7,0,0,0,2.4-2.4l13.7-81a2.7,2.7,0,0,0-2.3-3.1h-.2L78.2,201.7a2.8,2.8,0,0,0-2.9,2.4,2.7,2.7,0,0,0,0,.4h0Z" transform="translate(-15.1 -129.3)"/><path class="d" d="M128.4,285a1.7,1.7,0,0,0-1.9,1.3l-7-1.4a13.8,13.8,0,0,1-11-14.6l1-12.7a1.7,1.7,0,1,0-.3,0L106.9,270a13.8,13.8,0,0,1-14.4,11.1l-7.5-.5a1.7,1.7,0,1,0,0,.3l7.4,1.5a13.8,13.8,0,0,1,11,14.6l-1,13a1.7,1.7,0,1,0,.2,0l2.5-12.8a13.8,13.8,0,0,1,14.4-11.1l7.1.5a1.7,1.7,0,1,0,1.9-1.7Z" transform="translate(-15.1 -129.3)"/><path class="d" d="M173.4,239.7a1.3,1.3,0,0,0-1.4,1l-5.2-1.1a10.3,10.3,0,0,1-8.2-10.9l.8-9.5a1.3,1.3,0,1,0-.2,0l-1.8,9.4a10.3,10.3,0,0,1-10.8,8.3l-5.6-.4a1.3,1.3,0,1,0,0,.2l5.5,1.1a10.3,10.3,0,0,1,8.2,10.9l-.8,9.7a1.3,1.3,0,1,0,.2,0l1.8-9.6a10.3,10.3,0,0,1,10.8-8.3l5.3.4a1.3,1.3,0,1,0,1.5-1.2Z" transform="translate(-15.1 -129.3)"/><path class="d" d="M383.2,251.9a2.4,2.4,0,0,0-3.4.2,2.4,2.4,0,0,0-.6,1.2l-26-2.5L364.7,233a2.4,2.4,0,1,0-.5-.3h.1l-11.4,17.6-11.7-16.7.2-.2a2.4,2.4,0,1,0-.6.5l11.8,16.8-18.6-1.8a2.4,2.4,0,1,0,0,.5l18.5,1.8-10.3,15.8a2.4,2.4,0,1,0,.6.4h-.1l10.4-16,13.7,19.6-.2.2a2.4,2.4,0,1,0,.6-.5l-13.5-19.3,25.7,2.5a2.4,2.4,0,1,0,4-1.8Z" transform="translate(-15.1 -129.3)"/><path class="d" d="M153.3,299.3a.8.8,0,0,0-.9.6l-3.5-.7a6.8,6.8,0,0,1-5.4-7.2l.5-6.3a.9.9,0,1,0-.1,0l-1.2,6.2a6.8,6.8,0,0,1-7.1,5.5l-3.7-.2a.8.8,0,1,0,0,.2l3.7.8a6.8,6.8,0,0,1,5.4,7.2l-.5,6.4a.9.9,0,1,0,.1,0l1.2-6.3a6.8,6.8,0,0,1,7.1-5.5l3.5.2a.8.8,0,1,0,1-.8Z" transform="translate(-15.1 -129.3)"/><path class="a" d="M185.7,135.7,63,169.1l-19.2,5.2-9.6,2.6-2.4.7-1.2.3-.9.3a2.5,2.5,0,0,0-1.2.9,2.7,2.7,0,0,0-.3,2.7l.2.3.2.2.2.2h.2l.2.2,3.9,3,15.7,12.2,33.3,25.8L95.3,208a2,2,0,0,1,3.4.6l20.5,55.2a2,2,0,0,1-2.2,2.7L59,256.6a2,2,0,0,1-1.2-3.2l13.2-15.9L39.3,209.6,24.5,196.5l-3.7-3.3-.2-.2-.4-.4-.8-.7a12.9,12.9,0,0,1-1.4-1.7,12.3,12.3,0,0,1-1.1-1.8,12.2,12.2,0,0,1-.9-2,15.5,15.5,0,0,1,3.3-15.8,15,15,0,0,1,7.1-4.2l1.5-.3,1.2-.2,2.4-.5,9.7-2,19.4-4,124.6-25.6A1,1,0,0,1,185.7,135.7Z" transform="translate(-15.1 -129.3)"/><path class="c" d="M187.4,134.7,64.7,168.1l-19.2,5.2-9.6,2.6-2.4.7-1.2.3-.9.3a2.5,2.5,0,0,0-1.2.9,2.7,2.7,0,0,0-.3,2.7l.2.3.2.2.2.2h.2l.2.2,3.9,3,15.7,12.2,33.3,25.8L96.9,207a2,2,0,0,1,3.4.6l20.5,55.2a2,2,0,0,1-2.2,2.7l-58.1-9.8a2,2,0,0,1-1.2-3.2l13.2-15.9L41,208.6,26.1,195.5l-3.7-3.3-.2-.2-.4-.4-.8-.7a12.9,12.9,0,0,1-1.4-1.7,12.3,12.3,0,0,1-1.1-1.8,12.2,12.2,0,0,1-.9-2,15.5,15.5,0,0,1,3.3-15.8,15,15,0,0,1,7.1-4.2l1.5-.3,1.2-.2,2.4-.5,9.7-2,19.4-4,124.6-25.6A1,1,0,0,1,187.4,134.7Z" transform="translate(-15.1 -129.3)"/><path class="a" d="M192.5,132.7a4,4,0,0,0-4-3.4h-.8L30.5,166.1l-1.3.4a17.9,17.9,0,0,0-8.4,5.3,18.6,18.6,0,0,0-3.4,19,14.6,14.6,0,0,0,1.1,2.4,14.8,14.8,0,0,0,1.5,2.2l.2.2a13.1,13.1,0,0,0,1.5,1.7l.8.8.5.4,49.5,41.3-11,14a5,5,0,0,0,3.2,8l58.4,8.2h.8a5,5,0,0,0,4.5-6.9l-22.1-54.7a5,5,0,0,0-8.6-1.2L86.9,221.2,35.5,183.6l154.2-46.5A4,4,0,0,0,192.5,132.7Zm-3.7,1.6L66.8,171l-19,5.7-9.5,2.9-2.4.7-1.2.4-.9.3a2.5,2.5,0,0,0-1.2.9,2.7,2.7,0,0,0-.2,2.8l.2.3.2.2.3.2h.2l.2.2,4,2.9,16,11.8,34,24.9,12.7-16.2a2,2,0,0,1,3.4.5l22.1,54.7a2,2,0,0,1-2.1,2.7l-58.4-8.2a2,2,0,0,1-1.3-3.2l12.8-16.3-32.4-27L28.9,199.6l-3.8-3.2-.3-.2-.4-.4-.8-.7a12.9,12.9,0,0,1-1.4-1.6,15.4,15.4,0,0,1-2.1-3.8A15.5,15.5,0,0,1,23,173.8a15,15,0,0,1,7-4.4l1.4-.4,1.2-.3,2.4-.6,9.7-2.3,19.4-4.5,124.1-29A1,1,0,0,1,188.8,134.2Z" transform="translate(-15.1 -129.3)"/></svg>