<svg id="Layer_1" data-name="Layer 1" xmlns="http://www.w3.org/2000/svg" viewBox="0 0 3840 2160" preserveAspectRatio="xMinYMin slice" aria-hidden="true"><defs><style>.cls-1{fill:#e7e7e7;}.cls-2{fill:#e1e1e1;}.cls-3{fill:#ebebec;}.cls-4{fill:#efefee;}.cls-5{fill:#fbfbfc;}.cls-6{fill:#f7f7f7;}</style></defs><title>PB-BG</title><path class="cls-1" d="M3840,0H2937.4c-68.8,149.1-201.5,506.4-204.5,1049.8-1.7,306.9,242.8,706.4,250.2,1110.2H3840Z"/><path class="cls-2" d="M2928.9,0c-42.8,46.2-34.6,80.8,56.2,88.4,324.6,27.4,761.5,597,854.9,723.6V0Z"/><path class="cls-3" d="M2793.3,1184.5S3313.9,488.4,3276.7,0H1894C2436.9,162.6,2793.3,1184.5,2793.3,1184.5Z"/><path class="cls-4" d="M1463.7,0,1172.1,2160h1942C3071.3,1673.7,2818.2,461.1,2455,0Z"/><rect class="cls-5" width="1213" height="2160"/><path class="cls-6" d="M1826.9,0H696.7c242.9,586.3,332.7,1679.5,361.4,2160H2221.7c-39.6-430.8-156.3-1262.6-486-1722.2C1770.2,346.4,1810.8,176.1,1826.9,0Z"/></svg>